<?xml version="1.0" standalone="no"?>
<svg xmlns:xlink="http://www.w3.org/1999/xlink" id="wave" style="transform:rotate(180deg); transition: 0.3s" viewBox="0 0 1440 100" version="1.1" xmlns="http://www.w3.org/2000/svg"><defs><linearGradient id="sw-gradient-0" x1="0" x2="0" y1="1" y2="0"><stop stop-color="rgba(255, 249, 234, 1)" offset="0%"/><stop stop-color="rgba(255, 249, 234, 1)" offset="100%"/></linearGradient></defs><path style="transform:translate(0, 0px); opacity:1" fill="url(#sw-gradient-0)" d="M0,40L26.7,43.3C53.3,47,107,53,160,58.3C213.3,63,267,67,320,63.3C373.3,60,427,50,480,38.3C533.3,27,587,13,640,20C693.3,27,747,53,800,66.7C853.3,80,907,80,960,71.7C1013.3,63,1067,47,1120,38.3C1173.3,30,1227,30,1280,33.3C1333.3,37,1387,43,1440,40C1493.3,37,1547,23,1600,28.3C1653.3,33,1707,57,1760,65C1813.3,73,1867,67,1920,63.3C1973.3,60,2027,60,2080,50C2133.3,40,2187,20,2240,11.7C2293.3,3,2347,7,2400,10C2453.3,13,2507,17,2560,28.3C2613.3,40,2667,60,2720,70C2773.3,80,2827,80,2880,81.7C2933.3,83,2987,87,3040,76.7C3093.3,67,3147,43,3200,43.3C3253.3,43,3307,67,3360,75C3413.3,83,3467,77,3520,71.7C3573.3,67,3627,63,3680,65C3733.3,67,3787,73,3813,76.7L3840,80L3840,100L3813.3,100C3786.7,100,3733,100,3680,100C3626.7,100,3573,100,3520,100C3466.7,100,3413,100,3360,100C3306.7,100,3253,100,3200,100C3146.7,100,3093,100,3040,100C2986.7,100,2933,100,2880,100C2826.7,100,2773,100,2720,100C2666.7,100,2613,100,2560,100C2506.7,100,2453,100,2400,100C2346.7,100,2293,100,2240,100C2186.7,100,2133,100,2080,100C2026.7,100,1973,100,1920,100C1866.7,100,1813,100,1760,100C1706.7,100,1653,100,1600,100C1546.7,100,1493,100,1440,100C1386.7,100,1333,100,1280,100C1226.7,100,1173,100,1120,100C1066.7,100,1013,100,960,100C906.7,100,853,100,800,100C746.7,100,693,100,640,100C586.7,100,533,100,480,100C426.7,100,373,100,320,100C266.7,100,213,100,160,100C106.7,100,53,100,27,100L0,100Z"/></svg>